<?xml version="1.0" encoding="utf-8"?>
<svg id="master-artboard" viewBox="0 0 660 320" version="1.0" xmlns="http://www.w3.org/2000/svg" x="0px" y="0px" width="660px" height="320px" enable-background="new 0 0 1400 980"><rect id="ee-background" x="0" y="0" width="660" height="320" style="fill: white; fill-opacity: 0; pointer-events: none;"/><defs><style id="ee-google-fonts">@import url(https://fonts.googleapis.com/css?family=Bubblegum+Sans:400);</style></defs>

<g transform="matrix(6.6000000747442185, 0, 0, 3.200000047683716, -383.22145495009386, -156.49111938476562)"><g id="g-3" transform="matrix(1, 0, 0, 1, 0, 0)">
	<g id="g-4">
		<path class="st0" d="M58,49h100v100H58V49z" style="fill: rgb(255, 233, 196);"/>
	</g>
</g></g><g>
	
	
	
	
	<g transform="matrix(1, 0, 0, 1, -82.51687576138954, -550.1125050759313)">
		<path fill="#991307" d="M283.9,748c-7.5-9.9-52-20.4-54.2-22.3c-2.3-1.8-16.3-11.6-16.3-11.6H193h-20.4c0,0-14,9.8-16.3,11.6&#10;&#9;&#9;&#9;c-2.3,1.8-46.7,12.4-54.2,22.3c-13.2,17.2-7,81.2-8.5,105.3H193h99.4C290.9,829.2,297.1,765.2,283.9,748z"/>
		<path d="M 174.399994 758.900024 H 213.199993 V 853.300026 H 174.399994 V 758.900024 Z" fill="#FAD7D5"/>
		<path fill="#EB9257" d="M219.9,706.6c-0.7,1-1.5,1.9-2.3,2.8c0,0-0.1,0.1-0.1,0.1c-5.9,6.4-13.4,11-22.9,12.2c-0.3,0-0.5,0-0.8,0&#10;&#9;&#9;&#9;c-0.3,0-0.5,0-0.8,0c-9.6-1.3-17.1-5.9-23-12.3c-1.4-1.6-2.7-3.3-3.9-5v9.6H166c0,0,0,2-0.6,4.5c0.8,2,9,40.3,9,40.3&#10;&#9;&#9;&#9;s0,13.2,19.4,13.2c19.4,0,19.4-13.2,19.4-13.2s6.6-38.3,7.4-40.3c-0.5-2.1-0.6-3.8-0.6-4.3V706.6z"/>
		<path fill="#30210F" d="M263.9,653.5c-12.5-2.9-2.2-61-43.3-80.3c-57.6-27.1-82,23.5-83.8,31.3c-23.6,107.4,5.5,191.7,5.5,191.7&#10;&#9;&#9;&#9;c35-9.2,34.4-51.4,26.6-88.1c-4.1-4.9-7.3-10.3-9.7-15.7c-1.5-3.4-2.8-6.9-3.9-10.4c-5.3-17.1-4.7-33.2-4.7-33.2&#10;&#9;&#9;&#9;c18.8-19.2,23.5-32.1,24.7-37.7c0.4-2.2,0.4-3.3,0.4-3.3c0,0.1,0,0.1,0,0.2v0c0,0.2,0.1,0.4,0.1,0.6c0,0.2,0.1,0.5,0.2,0.7&#10;&#9;&#9;&#9;c0,0,0,0,0,0c0.1,0.5,0.2,0.9,0.4,1.4c0,0,0,0.1,0,0.1c0,0,0,0.1,0,0.1c0.5,1.4,1.2,2.7,2,4.1c0,0,0,0.1,0.1,0.1c0,0,0,0,0,0&#10;&#9;&#9;&#9;c6.1,9.6,20.4,17.9,33.4,23.8c0,0,0.1,0,0.1,0.1c0.7,0.3,1.4,0.6,2,0.9c0.1,0,0.1,0.1,0.2,0.1c1.9,0.9,3.8,1.6,5.6,2.4&#10;&#9;&#9;&#9;c0.2,0.1,0.4,0.2,0.6,0.2c0.5,0.2,1,0.4,1.4,0.6c0.3,0.1,0.5,0.2,0.8,0.3c0.4,0.2,0.8,0.3,1.2,0.5c0.4,0.1,0.7,0.3,1.1,0.4&#10;&#9;&#9;&#9;c0.4,0.2,0.8,0.3,1.2,0.4c0.5,0.2,1.1,0.4,1.6,0.6c0.2,0.1,0.4,0.2,0.6,0.2c0.4,0.2,0.8,0.3,1.2,0.4c0.2,0.1,0.4,0.1,0.6,0.2&#10;&#9;&#9;&#9;c0.4,0.2,0.8,0.3,1.2,0.4c0.1,0,0.2,0.1,0.3,0.1c1.1,0.4,2,0.7,2.7,0.9c0,0,0.1,0,0.1,0c0.2,0.1,0.4,0.1,0.6,0.2&#10;&#9;&#9;&#9;c1,0.3,1.4,0.3,1.7,0.5c0.1,0,0.2,0.1,0.2,0.1c0,0.1,0,0.3,0,0.4c0,0.2,0,0.5,0,1c0,1.4,0,2.7,0,4c-0.2,5.6-1,16.3-4.7,28&#10;&#9;&#9;&#9;c-0.1,0.2-0.1,0.4-0.2,0.6c-5.7,18.3-14.5,26.7-14.5,26.7c44.9-6.6,33.7-58.8,33.7-58.8C255.3,654.7,263.9,653.5,263.9,653.5z"/>
		<g>
			
				<path d="M 156.899997 660.200012 A 7.2 11.6 0 0 1 149.699997 671.800013 A 7.2 11.6 0 0 1 142.499997 660.200012 A 7.2 11.6 0 0 1 149.699997 648.600012 A 7.2 11.6 0 0 1 156.899997 660.200012 Z" transform="matrix(0.9908 -0.1352 0.1352 0.9908 -87.9137 26.3161)" fill="#EB9257"/>
			
				<path d="M 247.799997 660.200012 A 11.6 7.2 0 0 1 236.199997 667.400012 A 11.6 7.2 0 0 1 224.599997 660.200012 A 11.6 7.2 0 0 1 236.199997 653.000012 A 11.6 7.2 0 0 1 247.799997 660.200012 Z" transform="matrix(0.1352 -0.9908 0.9908 0.1352 -449.8693 804.9277)" fill="#EB9257"/>
		</g>
		<path fill="#F4A169" d="M217.7,709.5c4.6-5.3,8.1-11.1,10.8-16.9c1.5-3.4,2.8-6.9,3.9-10.4c3.6-11.7,4.5-22.5,4.7-28&#10;&#9;&#9;&#9;c0-1.3,0-2.7,0-4c0-1.9,0-1.4-1.9-2c-8.8-2.9-45.8-15.7-56.7-32.8c0,0,0-0.1-0.1-0.1c-0.8-1.3-1.5-2.7-2-4.1&#10;&#9;&#9;&#9;c0-0.1-0.1-0.1-0.1-0.2c-0.2-0.4-0.3-0.9-0.4-1.4c0-0.1,0-0.1,0-0.2c-0.1-0.4-0.2-0.8-0.3-1.2c0,1.7-0.6,15.9-25.1,40.9&#10;&#9;&#9;&#9;c0,0-0.6,16.1,4.7,33.2c1.1,3.5,2.4,7,3.9,10.4c2.7,5.9,6.2,11.7,10.8,17c5.9,6.4,13.4,11,23,12.3c0.3,0,0.5,0,0.8,0&#10;&#9;&#9;&#9;c0.3,0,0.5,0,0.8,0C204.2,720.5,211.7,715.9,217.7,709.5C217.6,709.5,217.6,709.5,217.7,709.5z"/>
	</g>
	<g transform="matrix(1, 0, 0, 1, -10.31460947017365, -116.89890732863537)">
		<path fill="#FFFFFF" d="M653.4,320.5c-8.9-11-68.2-27.3-70.5-29.1c-0.3-0.3-0.7-0.7-1.2-1.2c-2.4,9.2-10.1,25.8-35.4,31.5&#10;&#9;&#9;&#9;c-25.3-5.6-33.1-22.2-35.4-31.5c-0.5,0.5-0.9,0.9-1.2,1.2c-2.3,1.8-61.6,18.2-70.5,29.1c-15.6,19.2-8.3,71.5-10,98.5h117.2h117.2&#10;&#9;&#9;&#9;C661.7,392,669,339.8,653.4,320.5z"/>
		<path fill="#EB9257" d="M572.8,266.5c-6.8,7.5-16,14-26.6,14h0c-10.6,0-19.7-6.4-26.5-13.9v18.1c-1.7,1.7-5.4,3.7-8.6,5.5&#10;&#9;&#9;&#9;c0,0,0,0.4,0,1c2.7,9.4,10.2,30.5,35.1,30.5c25,0,32.5-21.1,35.1-30.5c0-0.6,0-1,0-1c-3.2-1.8-6.9-3.8-8.6-5.5V266.5z"/>
		<path fill="#F4B251" d="M653.4,320.5c-8.9-11-68.2-27.3-70.5-29.1c-0.3-0.3-0.7-0.7-1.2-1.2c-1.2,4.7-5.5,10-9.3,17.2&#10;&#9;&#9;&#9;c-16.5,31.8-29,91.3-26.2,111.6h117.2C661.7,392,669,339.8,653.4,320.5z"/>
		<path fill="#F4B251" d="M510.8,290.2c-0.5,0.5-0.9,0.9-1.2,1.2c-2.3,1.8-61.6,18.2-70.5,29.1c-15.6,19.2-8.3,71.5-10,98.5h117.2&#10;&#9;&#9;&#9;c2.8-20.3-9.7-79.8-26.2-111.6C516.3,300.2,512,294.8,510.8,290.2z"/>
		<g>
			<path fill="#EB9257" d="M592.6,208.4c-0.7,10.9-1.6,22.3-2.7,31.2c10.3-4.6,11.5-21,11.9-30.2&#10;&#9;&#9;&#9;&#9;C602.1,201.7,595.4,206.2,592.6,208.4z"/>
			<path fill="#EB9257" d="M499.9,208.4c0.7,10.9,1.6,22.3,2.7,31.2c-10.3-4.6-11.5-21-11.9-30.2&#10;&#9;&#9;&#9;&#9;C490.3,201.7,497.1,206.2,499.9,208.4z"/>
		</g>
		<path fill="#F4A169" d="M589.8,200.9c0.1-1.2-0.9-14.2-2.8-17.6c-4.6-8.2-18.8-11.9-21.3-11.9c-2.6,0-11.7,6.4-14.8,7.3&#10;&#9;&#9;&#9;c-3.1,0.9-15.7,1.5-23.2-2c-4.1-2-11,4.5-15.6,6.1c-13.9,4.9-9.3,51.5-9.7,54.5c1,8.1,2.1,14.5,3.5,17.3&#10;&#9;&#9;&#9;c5.6,11.6,20.7,31.9,40.4,31.9h0c19.7,0,34.8-20.3,40.4-31.9c1.6-3.4,3-11.8,4-22.1C590.1,230.1,588.7,209.7,589.8,200.9z"/>
		<g>
			<g>
				<path fill="#8D6541" d="M593,153.7c1.6-2.5,3.2-6.8,2.8-13.9c0,0-4.5,2.8-9.3,3.2c0,0,4.4-1.4,4.7-9.2&#10;&#9;&#9;&#9;&#9;&#9;c-0.1,0.6-1.4,3.5-16.2,3.8c-7.4-3.3-16.8-5.3-28.9-5.3c-81.1,0-43.9,104.9-43.9,104.9c-0.6-24.7,7.9-50.3,7.9-50.3&#10;&#9;&#9;&#9;&#9;&#9;c9.9,5.9,36,6.7,36,6.7s26.1-0.8,36-6.7c0,0,8.6,24.8,8,49.5C590,236.5,607.7,179.7,593,153.7z"/>
				<path fill="#8D6541" d="M591.2,133.7c0,0,0,0.1,0,0.1C591.2,133.7,591.2,133.7,591.2,133.7z"/>
			</g>
		</g>
	</g>
	
	
</g>
<path d="M 300.8481750488281 294.2124938964844 C 299.9881591796875 294.2124938964844 299.47149658203125 294.1258239746094 299.29815673828125 293.9524841308594 C 296.4581604003906 291.37249755859375 291.16815185546875 278.4291687011719 283.42816162109375 255.12249755859375 C 275.68817138671875 231.82249450683594 271.81817626953125 215.82916259765625 271.81817626953125 207.14248657226562 C 271.81817626953125 206.96914672851562 272.4215087890625 206.62249755859375 273.628173828125 206.1024932861328 C 277.2348327636719 204.46914672851562 280.5215148925781 203.65249633789062 283.4881591796875 203.65249633789062 C 286.454833984375 203.65249633789062 287.93817138671875 203.78250122070312 287.93817138671875 204.04248046875 C 288.2848205566406 208.25582885742188 290.8448486328125 219.39248657226562 295.6181640625 237.45248413085938 C 300.3915100097656 255.5124969482422 304.4981689453125 268.02581787109375 307.93817138671875 274.99249267578125 C 308.71148681640625 276.5391540527344 309.4848327636719 276.9258117675781 310.2581787109375 276.1524963378906 C 310.5181579589844 275.8924865722656 310.6914978027344 275.5924987792969 310.7781677246094 275.25250244140625 C 313.0981750488281 270.8658142089844 316.4314880371094 261.9425048828125 320.7781677246094 248.48248291015625 C 325.1181640625 235.02249145507812 327.2881774902344 223.94915771484375 327.2881774902344 215.26248168945312 C 327.2881774902344 214.23582458496094 326.3215026855469 213.11915588378906 324.38818359375 211.91249084472656 C 322.44818115234375 210.70582580566406 320.704833984375 210.0191650390625 319.1581726074219 209.8524932861328 C 319.0715026855469 209.67916870117188 319.0281677246094 209.20582580566406 319.0281677246094 208.4324951171875 C 319.0281677246094 207.65914916992188 319.2448425292969 206.4324951171875 319.67816162109375 204.75250244140625 C 320.1048278808594 203.07916259765625 320.49151611328125 202.11248779296875 320.8381652832031 201.8524932861328 C 328.7514953613281 199.69915771484375 336.6648254394531 198.62249755859375 344.57818603515625 198.62249755859375 C 345.8648376464844 198.7958221435547 346.5081787109375 198.96914672851562 346.5081787109375 199.14248657226562 C 346.5081787109375 206.53582763671875 344.5081787109375 217.60916137695312 340.5081787109375 232.36248779296875 C 336.5081787109375 247.10916137695312 332.4014892578125 260.2658386230469 328.18817138671875 271.8324890136719 C 323.9748229980469 283.399169921875 321.2248229980469 289.82916259765625 319.93817138671875 291.12249755859375 C 316.1514892578125 293.1824951171875 309.7881774902344 294.2124938964844 300.8481750488281 294.2124938964844 ZM 339.1507873535156 293.3125 L 399.7807922363281 197.33248901367188 C 401.0741271972656 197.07916259765625 402.3641357421875 196.95248413085938 403.6507873535156 196.95248413085938 C 406.23077392578125 196.95248413085938 408.810791015625 197.3824920654297 411.3907775878906 198.24249267578125 L 350.37078857421875 294.2124938964844 C 349.1707763671875 294.4725036621094 347.96746826171875 294.60247802734375 346.7607727050781 294.60247802734375 C 344.2674560546875 294.60247802734375 341.73077392578125 294.1724853515625 339.1507873535156 293.3125 ZM 458.21563720703125 214.36248779296875 C 456.83563232421875 214.18914794921875 455.265625 214.1024932861328 453.5056457519531 214.1024932861328 C 451.7389831542969 214.1024932861328 449.5889587402344 214.27581787109375 447.0556335449219 214.62249755859375 C 444.515625 214.96249389648438 441.8923034667969 215.49916076660156 439.1856384277344 216.23248291015625 C 436.4789733886719 216.9658203125 434.265625 218.1058349609375 432.545654296875 219.65249633789062 C 430.82562255859375 221.19915771484375 429.96563720703125 223.06915283203125 429.96563720703125 225.2624969482422 C 429.96563720703125 227.45582580566406 431.275634765625 229.39248657226562 433.8956298828125 231.07249450683594 C 436.5223083496094 232.74581909179688 439.68231201171875 234.29249572753906 443.3756408691406 235.71249389648438 C 447.07562255859375 237.1324920654297 450.795654296875 238.74581909179688 454.53564453125 240.552490234375 C 458.275634765625 242.35916137695312 461.458984375 245.0024871826172 464.08563232421875 248.48248291015625 C 466.70562744140625 251.9691619873047 468.015625 256.1624755859375 468.015625 261.0625 C 468.015625 269.7491455078125 463.8656311035156 277.12249755859375 455.5656433105469 283.1824951171875 C 447.265625 289.2491455078125 436.795654296875 292.2825012207031 424.1556396484375 292.2825012207031 C 417.7956237792969 292.2825012207031 413.0656433105469 291.93914794921875 409.96563720703125 291.25250244140625 C 409.1922912597656 290.4725036621094 408.8056335449219 285.8491516113281 408.8056335449219 277.3824768066406 C 408.8056335449219 268.9091491699219 408.9789733886719 263.8125 409.3256530761719 262.0924987792969 C 409.5789794921875 261.31915283203125 411.0823059082031 260.37249755859375 413.83563232421875 259.25250244140625 C 416.5889587402344 258.13916015625 419.2556457519531 257.5824890136719 421.83563232421875 257.5824890136719 C 421.83563232421875 267.7291564941406 422.9089660644531 273.8758239746094 425.0556335449219 276.0224914550781 C 425.9156494140625 276.8824768066406 427.55230712890625 277.3125 429.96563720703125 277.3125 C 435.46563720703125 277.3125 440.25897216796875 275.7658386230469 444.34564208984375 272.6724853515625 C 448.43231201171875 269.5724792480469 450.47564697265625 265.91583251953125 450.47564697265625 261.7024841308594 C 450.47564697265625 258.8691711425781 449.1423034667969 256.3758239746094 446.47564697265625 254.2224884033203 C 443.8089599609375 252.07582092285156 440.56231689453125 250.20582580566406 436.7356262207031 248.61248779296875 C 432.9089660644531 247.0191650390625 429.102294921875 245.34249877929688 425.3156433105469 243.58248901367188 C 421.53564453125 241.81582641601562 418.31231689453125 239.38583374023438 415.6456298828125 236.29249572753906 C 412.9789733886719 233.19915771484375 411.6456298828125 229.5458221435547 411.6456298828125 225.33248901367188 C 411.6456298828125 219.052490234375 415.4089660644531 213.3091583251953 422.9356384277344 208.1024932861328 C 430.45562744140625 202.90249633789062 441.35565185546875 200.302490234375 455.6356506347656 200.302490234375 C 458.9889831542969 200.302490234375 460.87896728515625 200.5158233642578 461.3056335449219 200.94248962402344 C 461.3923034667969 201.20248413085938 461.4356384277344 201.82916259765625 461.4356384277344 202.82249450683594 C 461.4356384277344 203.8091583251953 461.1356506347656 205.7224884033203 460.53564453125 208.5625 C 459.9356384277344 211.3958282470703 459.16229248046875 213.32916259765625 458.21563720703125 214.36248779296875 Z" transform="matrix(1, 0, 0, 1, -52.29214859008789, -82.26969146728516)" style="fill: rgb(51, 51, 51); white-space: pre; color: rgb(51, 51, 51);"/></svg>