<?xml version="1.0" encoding="utf-8"?>
<svg id="master-artboard" viewBox="0 0 1004 1004" version="1.1" xmlns="http://www.w3.org/2000/svg" x="0px" y="0px" style="enable-background:new 0 0 2800 2800;" width="1004px" height="1004px"><rect id="ee-background" x="0" y="0" width="1004" height="1004" style="fill: white; fill-opacity: 0; pointer-events: none;"/>































































<g transform="matrix(0.9809301495552062, 0, 0, 0.9809301495552062, 9.000006675720213, 9.000038146972654)"><rect id="rect-1" x="0" y="0" width="1004" height="1004" style="fill: white; fill-opacity: 0; pointer-events: none;"/><g>
	
	
	
	
	
	
	
	
	
	
	
	
	
	
	
	
	
	
	<g transform="matrix(4.552003849374946, 0, 0, 4.552003849374946, -2644.293122522813, -3451.885015865586)">
		<g>
			<path fill="#333333" d="M691.1,952c-45,0-81.7-36.6-81.7-81.7s36.6-81.7,81.7-81.7s81.7,36.6,81.7,81.7S736.1,952,691.1,952z&#10;&#9;&#9;&#9;&#9; M691.1,793.3c-42.4,0-77,34.5-77,77c0,42.4,34.5,77,77,77c42.4,0,77-34.5,77-77C768,827.9,733.5,793.3,691.1,793.3z"/>
		</g>
		<g>
			<path fill="#AE1B19" d="M691.1,940.1c-38.5,0-69.8-31.3-69.8-69.8s31.3-69.8,69.8-69.8s69.8,31.3,69.8,69.8&#10;&#9;&#9;&#9;&#9;S729.5,940.1,691.1,940.1z M691.1,805.2c-35.9,0-65.1,29.2-65.1,65.1s29.2,65.1,65.1,65.1s65.1-29.2,65.1-65.1&#10;&#9;&#9;&#9;&#9;S727,805.2,691.1,805.2z"/>
		</g>
		<g>
			<path d="M 733 891.2000122070312 L 760.2999877929688 897.2000122070312 L 733.7999877929688 879.9000244140625 L 797.9000244140625 868.0999755859375 L 736.9000244140625 856.9000244140625 L 762.0999755859375 840.7000122070312 L 731.5 847.0999755859375 L 769 792.7000122070312 L 713.4000244140625 831 L 720.4000244140625 799.2999877929688 L 703 825.9000244140625 L 691.0999755859375 761.2999877929688 L 679.5 824.5 L 663.2000122070312 799.0999755859375 L 669.5999755859375 829.9000244140625 L 615.7000122070312 792.7000122070312 L 652.2000122070312 845.7999877929688 L 622.5 839.2999877929688 L 648.5 856.2999877929688 L 584.2999877929688 868.0999755859375 L 648.2000122070312 879.7999877929688 L 622.2999877929688 896.4000244140625 L 652.4000244140625 890.0999755859375 L 615.7000122070312 943.5 L 669.2000122070312 906.5999755859375 L 662.5 937.0999755859375 L 679.4000244140625 911.2999877929688 L 691.0999755859375 974.9000244140625 L 703.0999755859375 909.5999755859375 L 721.2000122070312 938 L 714.5999755859375 906 L 769 943.5 Z" fill="#FFFFFF"/>
			<path fill="#333333" d="M691.1,977.2c-1.1,0-2.1-0.8-2.3-1.9l-10.6-57.8l-13.7,20.9c-0.6,0.9-1.8,1.3-2.9,0.9&#10;&#9;&#9;&#9;&#9;c-1-0.4-1.6-1.6-1.4-2.7l5.4-24.7L617,945.4c-0.9,0.6-2.2,0.5-3-0.3s-0.9-2.1-0.3-3l33.4-48.5l-24.4,5.1&#10;&#9;&#9;&#9;&#9;c-1.1,0.2-2.2-0.4-2.7-1.4c-0.4-1,0-2.3,0.9-2.9l20.9-13.4l-58-10.7c-1.1-0.2-1.9-1.2-1.9-2.3s0.8-2.1,1.9-2.3l58.4-10.7&#10;&#9;&#9;&#9;&#9;l-21.1-13.8c-0.9-0.6-1.3-1.8-0.9-2.9s1.6-1.6,2.7-1.4l23.9,5.2l-33.2-48.2c-0.6-0.9-0.5-2.2,0.3-3c0.8-0.8,2.1-0.9,3-0.3&#10;&#9;&#9;&#9;&#9;l49.1,33.9l-5.2-25c-0.2-1.1,0.4-2.2,1.4-2.7c1-0.4,2.3,0,2.9,0.9l13,20.4l10.5-57.3c0.2-1.1,1.2-1.9,2.3-1.9s2.1,0.8,2.3,1.9&#10;&#9;&#9;&#9;&#9;l10.8,58.9l14.2-21.7c0.6-0.9,1.8-1.3,2.9-0.9c1,0.4,1.6,1.6,1.4,2.7l-5.7,25.8l50.6-34.9c0.9-0.6,2.2-0.5,3,0.3&#10;&#9;&#9;&#9;&#9;c0.8,0.8,0.9,2.1,0.3,3l-34.2,49.6l24.9-5.2c1.1-0.2,2.2,0.4,2.7,1.4c0.4,1,0,2.3-0.9,2.9l-20.2,12.9l55.1,10.1&#10;&#9;&#9;&#9;&#9;c1.1,0.2,1.9,1.2,1.9,2.3s-0.8,2.1-1.9,2.3L740,881.1l21.6,14.1c0.9,0.6,1.3,1.8,0.9,2.9c-0.4,1-1.6,1.6-2.7,1.4l-21.5-4.7&#10;&#9;&#9;&#9;&#9;l32.6,47.4c0.6,0.9,0.5,2.2-0.3,3c-0.8,0.8-2.1,0.9-3,0.3l-49.6-34.2l5.5,26.3c0.2,1.1-0.4,2.2-1.4,2.7c-1,0.4-2.3,0-2.9-0.9&#10;&#9;&#9;&#9;&#9;l-15-23.4l-10.9,59.4C693.2,976.4,692.2,977.2,691.1,977.2z M679.4,908.9c0.2,0,0.3,0,0.5,0c0.9,0.2,1.7,0.9,1.8,1.9l9.4,51&#10;&#9;&#9;&#9;&#9;l9.7-52.7c0.2-0.9,0.9-1.7,1.9-1.9c0.9-0.2,1.9,0.2,2.4,1l11.3,17.6l-4.1-19.6c-0.2-0.9,0.2-1.9,1-2.4c0.8-0.5,1.8-0.5,2.6,0&#10;&#9;&#9;&#9;&#9;l43.9,30.3L731,892.5c-0.5-0.8-0.6-1.8,0-2.6c0.5-0.8,1.5-1.2,2.5-1l14.9,3.3l-15.8-10.3c-0.8-0.5-1.2-1.5-1-2.4&#10;&#9;&#9;&#9;&#9;c0.2-0.9,0.9-1.7,1.9-1.8l51.4-9.5l-48.4-8.9c-0.9-0.2-1.7-0.9-1.9-1.9s0.2-1.9,1-2.4l14.5-9.3l-18.2,3.8c-0.9,0.2-1.9-0.2-2.4-1&#10;&#9;&#9;&#9;&#9;s-0.5-1.8,0-2.6l30.3-43.9l-45,31c-0.8,0.5-1.8,0.6-2.6,0c-0.8-0.5-1.2-1.5-1-2.5l4.2-19.2l-10.4,15.9c-0.5,0.8-1.5,1.2-2.4,1&#10;&#9;&#9;&#9;&#9;c-0.9-0.2-1.7-0.9-1.8-1.9l-9.6-52.1l-9.3,50.6c-0.2,0.9-0.9,1.7-1.9,1.9c-0.9,0.2-1.9-0.2-2.4-1l-9.4-14.6l3.8,18.3&#10;&#9;&#9;&#9;&#9;c0.2,0.9-0.2,1.9-1,2.4c-0.8,0.5-1.8,0.5-2.6,0l-43.4-29.9l29.3,42.5c0.5,0.8,0.6,1.8,0,2.6c-0.5,0.8-1.5,1.2-2.5,1l-17.2-3.8&#10;&#9;&#9;&#9;&#9;l15.3,10c0.8,0.5,1.2,1.5,1,2.4s-0.9,1.7-1.9,1.8l-51.6,9.5l51.3,9.4c0.9,0.2,1.7,0.9,1.9,1.9c0.2,0.9-0.2,1.9-1,2.4l-15.1,9.7&#10;&#9;&#9;&#9;&#9;l17.6-3.7c0.9-0.2,1.9,0.2,2.4,1c0.5,0.8,0.5,1.8,0,2.6l-29.5,42.8l43-29.6c0.8-0.5,1.8-0.6,2.6,0c0.8,0.5,1.2,1.5,1,2.5l-4,18.1&#10;&#9;&#9;&#9;&#9;l9.9-15.2C677.9,909.3,678.6,908.9,679.4,908.9z"/>
		</g>
		<g>
			<path d="M 691.5999755859375 795.7000122070312 L 683.0999755859375 833.5999755859375 L 691.5999755859375 839.9000244140625 L 698.9000244140625 833.2999877929688 Z" fill="#AE1B19"/>
		</g>
		<g>
			<g>
				<path d="M 691.2999877929688 845.7000122070312 L 688.5 858.0999755859375 L 691.2999877929688 860.0999755859375 L 693.7000122070312 858 Z" fill="#AE1B19"/>
			</g>
			<g>
				<path d="M 691.2999877929688 895.5999755859375 L 688.5 883.2000122070312 L 691.2999877929688 881.0999755859375 L 693.7000122070312 883.2999877929688 Z" fill="#AE1B19"/>
			</g>
		</g>
		<g>
			<g>
				<path d="M 708.9000244140625 853.0999755859375 L 698.0999755859375 859.9000244140625 L 698.5999755859375 863.2999877929688 L 701.9000244140625 863.5 Z" fill="#AE1B19"/>
			</g>
			<g>
				<path d="M 673.5999755859375 888.4000244140625 L 680.4000244140625 877.7000122070312 L 683.7999877929688 878.2000122070312 L 684 881.4000244140625 Z" fill="#AE1B19"/>
			</g>
		</g>
		<g>
			<g>
				<path d="M 708.5999755859375 888.4000244140625 L 701.7999877929688 877.7000122070312 L 698.4000244140625 878.2000122070312 L 698.2000122070312 881.4000244140625 Z" fill="#AE1B19"/>
			</g>
			<g>
				<path d="M 673.2999877929688 853.0999755859375 L 684 859.9000244140625 L 683.5 863.2999877929688 L 680.2999877929688 863.5 Z" fill="#AE1B19"/>
			</g>
		</g>
		<g>
			<g>
				<path d="M 716 870.7999877929688 L 703.5999755859375 868 L 701.5999755859375 870.7999877929688 L 703.7000122070312 873.2000122070312 Z" fill="#AE1B19"/>
			</g>
			<g>
				<path d="M 666.0999755859375 870.7999877929688 L 678.5 868 L 680.5999755859375 870.7999877929688 L 678.4000244140625 873.2000122070312 Z" fill="#AE1B19"/>
			</g>
		</g>
		<g>
			<path d="M 691.5999755859375 944.2999877929688 L 683.0999755859375 906.4000244140625 L 691.5999755859375 900.2000122070312 L 698.9000244140625 906.7000122070312 Z" fill="#AE1B19"/>
		</g>
		<g>
			<path d="M 765.2999877929688 868.7000122070312 L 727.4000244140625 860.2000122070312 L 721.2000122070312 868.7000122070312 L 727.7000122070312 876 Z" fill="#AE1B19"/>
		</g>
		<g>
			<path d="M 616.7999877929688 868.7000122070312 L 654.5999755859375 860.2000122070312 L 660.9000244140625 868.7000122070312 L 654.2999877929688 876 Z" fill="#AE1B19"/>
		</g>
		<g>
			<path d="M 744 817.9000244140625 L 711.2000122070312 838.7000122070312 L 712.7999877929688 849.0999755859375 L 722.5999755859375 849.7000122070312 Z" fill="#AE1B19"/>
		</g>
		<g>
			<path d="M 636.7000122070312 923 L 657.4000244140625 890.2000122070312 L 667.9000244140625 891.7999877929688 L 668.4000244140625 901.5 Z" fill="#AE1B19"/>
		</g>
		<g>
			<path d="M 747 923 L 726.2000122070312 890.2000122070312 L 715.7999877929688 891.7999877929688 L 715.2000122070312 901.5 Z" fill="#AE1B19"/>
		</g>
		<g>
			<path d="M 638.4000244140625 816 L 671.2000122070312 836.7000122070312 L 669.5999755859375 847.2000122070312 L 659.7999877929688 847.7000122070312 Z" fill="#AE1B19"/>
		</g>
		<g>
			<path d="M 711.2000122070312 821.7000122070312 L 700.0999755859375 837.5999755859375 L 702.7999877929688 842.0999755859375 L 707.4000244140625 840.4000244140625 Z" fill="#333333"/>
		</g>
		<g>
			<path d="M 670.7000122070312 918.2000122070312 L 673.9000244140625 899.0999755859375 L 679 897.7999877929688 L 681.2000122070312 902.2000122070312 Z" fill="#333333"/>
		</g>
		<g>
			<path d="M 740.2999877929688 889.9000244140625 L 724.4000244140625 878.7999877929688 L 719.9000244140625 881.5999755859375 L 721.5 886.2000122070312 Z" fill="#333333"/>
		</g>
		<g>
			<path d="M 643.5999755859375 847.7999877929688 L 662.7000122070312 851 L 664 856.0999755859375 L 659.5999755859375 858.2999877929688 Z" fill="#333333"/>
		</g>
		<g>
			<path d="M 737.7999877929688 849.7000122070312 L 718.5999755859375 853.0999755859375 L 717.4000244140625 858.2000122070312 L 721.7999877929688 860.2999877929688 Z" fill="#333333"/>
		</g>
		<g>
			<path d="M 642.4000244140625 888.2999877929688 L 658.2000122070312 877.0999755859375 L 662.7000122070312 879.7999877929688 L 661.0999755859375 884.4000244140625 Z" fill="#333333"/>
		</g>
		<g>
			<path d="M 713 918.2000122070312 L 709.5999755859375 899 L 704.5 897.7999877929688 L 702.4000244140625 902.2000122070312 Z" fill="#333333"/>
		</g>
		<g>
			<path d="M 671.9000244140625 820.9000244140625 L 683.0999755859375 836.7000122070312 L 680.4000244140625 841.2999877929688 L 675.7000122070312 839.7000122070312 Z" fill="#333333"/>
		</g>
		<g>
			<path fill="#333333" d="M691.1,901c-16.9,0-30.7-13.8-30.7-30.7c0-16.9,13.8-30.7,30.7-30.7s30.7,13.8,30.7,30.7&#10;&#9;&#9;&#9;&#9;C721.8,887.2,708,901,691.1,901z M691.1,844.3c-14.3,0-26,11.7-26,26c0,14.3,11.7,26,26,26s26-11.7,26-26&#10;&#9;&#9;&#9;&#9;C717.1,856,705.4,844.3,691.1,844.3z"/>
		</g>
		<g>
			<path d="M 699.599976 870.299988 A 8.5 8.5 0 0 1 691.099976 878.799988 A 8.5 8.5 0 0 1 682.599976 870.299988 A 8.5 8.5 0 0 1 691.099976 861.799988 A 8.5 8.5 0 0 1 699.599976 870.299988 Z" fill="#AE1B19"/>
			<path fill="#333333" d="M691.1,881.2c-6,0-10.8-4.9-10.8-10.8c0-6,4.9-10.8,10.8-10.8c6,0,10.8,4.9,10.8,10.8&#10;&#9;&#9;&#9;&#9;C701.9,876.3,697.1,881.2,691.1,881.2z M691.1,864.2c-3.4,0-6.1,2.8-6.1,6.1c0,3.4,2.8,6.1,6.1,6.1c3.4,0,6.1-2.8,6.1-6.1&#10;&#9;&#9;&#9;&#9;C697.2,866.9,694.5,864.2,691.1,864.2z"/>
		</g>
	</g>
</g></g></svg>