<?xml version="1.0" encoding="utf-8"?>
<svg id="master-artboard" viewBox="0 0 1004 1004" version="1.1" xmlns="http://www.w3.org/2000/svg" x="0px" y="0px" style="enable-background:new 0 0 2800 2800;" width="1004px" height="1004px"><rect id="ee-background" x="0" y="0" width="1004" height="1004" style="fill: white; fill-opacity: 0; pointer-events: none;"/>




<path class="st1" d="M1385,1778.3c-10.1-0.4-20.4-1.2-30.4-2.4l1.2-9.9c9.8,1.2,19.7,2,29.6,2.3L1385,1778.3z M1415.5,1778.3&#10;&#9;&#9;l-0.4-10c9.9-0.4,19.8-1.2,29.6-2.4l1.2,9.9C1435.8,1777.1,1425.6,1777.9,1415.5,1778.3z M1324.5,1771.1c-9.9-2-19.9-4.4-29.6-7.3&#10;&#9;&#9;l2.8-9.6c9.5,2.7,19.2,5.1,28.8,7.1L1324.5,1771.1z M1475.9,1771l-2-9.8c9.7-2,19.4-4.4,28.8-7.1l2.8,9.6&#10;&#9;&#9;C1495.8,1766.5,1485.8,1769,1475.9,1771z M1266,1754.2c-9.5-3.6-18.9-7.6-28.1-11.9l4.3-9c8.9,4.2,18.1,8.1,27.3,11.6L1266,1754.2z&#10;&#9;&#9; M1534.4,1754.1l-3.6-9.3c9.2-3.5,18.4-7.4,27.3-11.6l4.3,9C1553.3,1746.4,1543.9,1750.5,1534.4,1754.1z M1210.9,1728.1&#10;&#9;&#9;c-8.8-5.1-17.4-10.5-25.8-16.3l5.7-8.2c8.1,5.6,16.6,10.9,25.1,15.9L1210.9,1728.1z M1589.4,1727.9l-5-8.7&#10;&#9;&#9;c8.5-4.9,17-10.3,25.1-15.9l5.7,8.2C1606.8,1717.3,1598.2,1722.8,1589.4,1727.9z M1160.7,1693.5c-7.8-6.4-15.5-13.2-22.8-20.2&#10;&#9;&#9;l6.9-7.2c7.1,6.8,14.6,13.4,22.2,19.7L1160.7,1693.5z M1639.5,1693.2l-6.3-7.7c7.6-6.2,15.1-12.9,22.2-19.7l6.9,7.2&#10;&#9;&#9;C1655,1680,1647.3,1686.8,1639.5,1693.2z M1116.8,1651.3c-6.7-7.6-13.2-15.5-19.3-23.6l8-6c5.9,7.9,12.3,15.6,18.8,23&#10;&#9;&#9;L1116.8,1651.3z M1683.4,1651l-7.5-6.6c6.5-7.4,12.9-15.1,18.8-23l8,6C1696.6,1635.5,1690.1,1643.5,1683.4,1651z M1080.1,1602.6&#10;&#9;&#9;c-5.4-8.5-10.6-17.4-15.3-26.4l8.8-4.7c4.6,8.7,9.6,17.3,14.9,25.7L1080.1,1602.6z M1720.1,1602.3l-8.4-5.4&#10;&#9;&#9;c5.3-8.3,10.3-17,14.9-25.7l8.9,4.7C1730.6,1584.9,1725.5,1593.8,1720.1,1602.3z M1051.7,1548.8c-4-9.3-7.6-18.9-10.8-28.5l9.5-3.2&#10;&#9;&#9;c3.1,9.3,6.7,18.7,10.5,27.7L1051.7,1548.8z M1748.4,1548.4l-9.2-3.9c3.9-9.1,7.4-18.4,10.5-27.8l9.5,3.2&#10;&#9;&#9;C1756,1529.5,1752.4,1539.1,1748.4,1548.4z M1032.4,1491c-2.4-9.8-4.5-19.9-6.1-29.9l9.9-1.6c1.6,9.7,3.6,19.5,5.9,29.1&#10;&#9;&#9;L1032.4,1491z M1767.7,1490.6l-9.7-2.4c2.3-9.6,4.3-19.3,5.9-29.1l9.9,1.6C1772.2,1470.7,1770.1,1480.8,1767.7,1490.6z&#10;&#9;&#9; M1022.6,1430.9c-0.8-10.1-1.2-20.3-1.2-30.5l10,0c0,9.9,0.4,19.9,1.2,29.7L1022.6,1430.9z M1777.4,1430.4l-10-0.8&#10;&#9;&#9;c0.8-9.8,1.2-19.8,1.2-29.7l0-0.9l10,0l0,0.9C1778.6,1410.1,1778.2,1420.4,1777.4,1430.4z M1032.5,1370.8l-10-0.8&#10;&#9;&#9;c0.8-10.1,2-20.3,3.6-30.3l9.9,1.6C1034.5,1351,1033.3,1361,1032.5,1370.8z M1767.4,1369.5c-0.8-9.8-2-19.7-3.6-29.5l9.9-1.6&#10;&#9;&#9;c1.6,10,2.9,20.2,3.7,30.3L1767.4,1369.5z M1041.9,1312.2l-9.7-2.4c2.4-9.8,5.2-19.7,8.4-29.3l9.5,3.2&#10;&#9;&#9;C1047,1293.1,1044.2,1302.7,1041.9,1312.2z M1757.8,1310.9c-2.4-9.6-5.2-19.2-8.3-28.5l9.5-3.2c3.2,9.6,6.1,19.4,8.5,29.3&#10;&#9;&#9;L1757.8,1310.9z M1060.6,1255.9l-9.2-3.9c4-9.3,8.4-18.6,13.1-27.6l8.9,4.6C1068.7,1237.8,1064.5,1246.9,1060.6,1255.9z&#10;&#9;&#9; M1738.9,1254.7c-3.9-9-8.2-18-12.8-26.8l8.8-4.7c4.7,8.9,9.1,18.2,13.1,27.5L1738.9,1254.7z M1088.1,1203.4l-8.5-5.3&#10;&#9;&#9;c5.4-8.6,11.2-17,17.3-25.1l8,6C1099.1,1186.8,1093.4,1195,1088.1,1203.4z M1711.2,1202.3c-5.3-8.3-11-16.5-16.9-24.4l8-6&#10;&#9;&#9;c6.1,8.1,12,16.5,17.4,25L1711.2,1202.3z M1123.8,1155.9l-7.5-6.6c6.7-7.6,13.8-15,21.1-22l6.9,7.2&#10;&#9;&#9;C1137.2,1141.3,1130.3,1148.5,1123.8,1155.9z M1675.4,1155c-6.6-7.4-13.5-14.5-20.6-21.4l6.9-7.2c7.3,7,14.4,14.4,21.2,21.9&#10;&#9;&#9;L1675.4,1155z M1166.5,1114.8l-6.3-7.7c7.8-6.4,16-12.6,24.3-18.4l5.7,8.2C1182.1,1102.5,1174.1,1108.5,1166.5,1114.8z&#10;&#9;&#9; M1632.6,1114c-7.6-6.2-15.6-12.2-23.8-17.8l5.7-8.2c8.3,5.7,16.5,11.9,24.4,18.3L1632.6,1114z M1215.2,1081l-5-8.6&#10;&#9;&#9;c8.8-5.1,17.8-9.9,26.9-14.2l4.3,9C1232.6,1071.4,1223.7,1076,1215.2,1081z M1583.7,1080.4c-8.6-4.9-17.4-9.6-26.3-13.8l4.3-9&#10;&#9;&#9;c9.1,4.3,18.2,9.1,27,14.1L1583.7,1080.4z M1268.7,1055.5l-3.6-9.3c9.5-3.6,19.2-6.9,28.9-9.7l2.8,9.6&#10;&#9;&#9;C1287.4,1048.8,1277.9,1051.9,1268.7,1055.5z M1530.1,1055c-9.2-3.5-18.7-6.6-28.2-9.3l2.8-9.6c9.7,2.8,19.5,6,28.9,9.6&#10;&#9;&#9;L1530.1,1055z M1325.6,1038.9l-2-9.8c9.9-2,20-3.7,30.1-4.9l1.2,9.9C1345.1,1035.3,1335.3,1036.9,1325.6,1038.9z M1473.1,1038.6&#10;&#9;&#9;c-9.6-1.9-19.5-3.5-29.3-4.7l1.2-9.9c10.1,1.2,20.2,2.8,30.1,4.8L1473.1,1038.6z M1384.5,1031.7l-0.4-10&#10;&#9;&#9;c10.1-0.4,20.4-0.4,30.5-0.1l-0.4,10C1404.4,1031.3,1394.3,1031.3,1384.5,1031.7z" style="fill: rgb(54, 22, 20);" transform="matrix(1, 0, 0, 1, -900.6516723632812, -896.4381713867188)"/>
<path class="st1" d="M1400,1595.8c-108,0-195.8-87.8-195.8-195.8c0-108,87.8-195.8,195.8-195.8c108,0,195.8,87.8,195.8,195.8&#10;&#9;&#9;C1595.8,1508,1508,1595.8,1400,1595.8z M1400,1214.2c-102.4,0-185.8,83.3-185.8,185.8c0,102.4,83.3,185.8,185.8,185.8&#10;&#9;&#9;c102.4,0,185.8-83.3,185.8-185.8C1585.8,1297.6,1502.4,1214.2,1400,1214.2z" style="fill: rgb(54, 22, 20);" transform="matrix(1, 0, 0, 1, -900.6516723632812, -896.4381713867188)"/>
<path class="st1" d="M1400,1618.3c-58.3,0-113.1-22.7-154.4-63.9c-41.2-41.2-63.9-96.1-63.9-154.4s22.7-113.1,63.9-154.4&#10;&#9;&#9;c41.2-41.2,96.1-63.9,154.4-63.9s113.1,22.7,154.4,63.9c41.2,41.2,63.9,96.1,63.9,154.4s-22.7,113.1-63.9,154.4&#10;&#9;&#9;S1458.3,1618.3,1400,1618.3z M1400,1191.7c-114.9,0-208.3,93.5-208.3,208.3s93.5,208.3,208.3,208.3s208.3-93.5,208.3-208.3&#10;&#9;&#9;S1514.9,1191.7,1400,1191.7z" style="fill: rgb(54, 22, 20);" transform="matrix(1, 0, 0, 1, -900.6516723632812, -896.4381713867188)"/>
<path class="st1" d="M1400,1476.8c-42.4,0-76.8-34.5-76.8-76.8s34.5-76.8,76.8-76.8s76.8,34.5,76.8,76.8S1442.4,1476.8,1400,1476.8&#10;&#9;&#9;z M1400,1333.2c-36.8,0-66.8,30-66.8,66.8c0,36.8,30,66.8,66.8,66.8c36.8,0,66.8-30,66.8-66.8&#10;&#9;&#9;C1466.8,1363.2,1436.8,1333.2,1400,1333.2z" style="fill: rgb(54, 22, 20);" transform="matrix(1, 0, 0, 1, -900.6516723632812, -896.4381713867188)"/>
<g transform="matrix(1, 0, 0, 1, -900.6516723632812, -896.4381713867188)">
		<path class="st2" d="M1400,1328.2c31.9,0,58.9,20.8,68.3,49.6L1400,946.4l-68.3,431.4C1341.1,1349,1368.1,1328.2,1400,1328.2z" style="fill: rgb(221, 179, 133);"/>
		<path class="st1" d="M1336.5,1379.3l-9.7-2.3l73.2-462.6l73.2,462.6l-9.7,2.3c-9-27.6-34.5-46.2-63.5-46.2&#10;&#9;&#9;&#9;C1371,1333.2,1345.4,1351.7,1336.5,1379.3z M1400,978.4l-58.9,372.3c14.3-17.1,35.6-27.5,58.9-27.5c23.3,0,44.7,10.4,58.9,27.5&#10;&#9;&#9;&#9;L1400,978.4z" style="fill: rgb(54, 22, 20);"/>
	</g><path class="st1" d="M1468.3,1377.8L1400,946.4v381.8C1431.9,1328.2,1458.9,1349,1468.3,1377.8z" style="fill: rgb(54, 22, 20);" transform="matrix(1, 0, 0, 1, -900.6516723632812, -896.4381713867188)"/>
<g transform="matrix(1, 0, 0, 1, -900.6516723632812, -896.4381713867188)">
		<path class="st2" d="M1400,1471.8c-31.9,0-58.9-20.8-68.3-49.6l68.3,431.4l68.3-431.4C1458.9,1451,1431.9,1471.8,1400,1471.8z" style="fill: rgb(221, 179, 133);"/>
		<path class="st1" d="M1400,1885.6l-73.2-462.6l9.7-2.3c9,27.6,34.5,46.2,63.5,46.2c29,0,54.6-18.5,63.5-46.2l9.7,2.3L1400,1885.6z&#10;&#9;&#9;&#9; M1341.1,1449.3l58.9,372.3l58.9-372.3c-14.3,17.1-35.6,27.5-58.9,27.5C1376.7,1476.8,1355.3,1466.4,1341.1,1449.3z" style="fill: rgb(54, 22, 20);"/>
	</g><path class="st1" d="M1331.7,1422.2l68.3,431.4v-381.8C1368.1,1471.8,1341.1,1451,1331.7,1422.2z" style="fill: rgb(54, 22, 20);" transform="matrix(1, 0, 0, 1, -900.6516723632812, -896.4381713867188)"/>
<g transform="matrix(1, 0, 0, 1, -900.6516723632812, -896.4381713867188)">
		<path class="st2" d="M1328.2,1400c0-31.9,20.8-58.9,49.6-68.3L946.4,1400l431.4,68.3C1349,1458.9,1328.2,1431.9,1328.2,1400z" style="fill: rgb(221, 179, 133);"/>
		<path class="st1" d="M1377,1473.2L914.4,1400l462.6-73.2l2.3,9.7c-27.6,9-46.2,34.5-46.2,63.5c0,29,18.5,54.6,46.2,63.5&#10;&#9;&#9;&#9;L1377,1473.2z M978.4,1400l372.3,58.9c-17.1-14.3-27.5-35.6-27.5-58.9c0-23.3,10.4-44.7,27.5-58.9L978.4,1400z" style="fill: rgb(54, 22, 20);"/>
	</g><path class="st1" d="M1377.8,1331.7L946.4,1400h381.8C1328.2,1368.1,1349,1341.1,1377.8,1331.7z" style="fill: rgb(54, 22, 20);" transform="matrix(1, 0, 0, 1, -900.6516723632812, -896.4381713867188)"/>
<g transform="matrix(1, 0, 0, 1, -900.6516723632812, -896.4381713867188)">
		<path class="st2" d="M1471.8,1400c0,31.9-20.8,58.9-49.6,68.3l431.4-68.3l-431.4-68.3C1451,1341.1,1471.8,1368.1,1471.8,1400z" style="fill: rgb(221, 179, 133);"/>
		<path class="st1" d="M1423,1473.2l-2.3-9.7c27.6-9,46.2-34.5,46.2-63.5c0-29-18.5-54.6-46.2-63.5l2.3-9.7l462.6,73.2L1423,1473.2z&#10;&#9;&#9;&#9; M1449.3,1341.1c17.1,14.3,27.5,35.6,27.5,58.9c0,23.3-10.4,44.7-27.5,58.9l372.3-58.9L1449.3,1341.1z" style="fill: rgb(54, 22, 20);"/>
	</g><path class="st1" d="M1422.2,1468.3l431.4-68.3h-381.8C1471.8,1431.9,1451,1458.9,1422.2,1468.3z" style="fill: rgb(54, 22, 20);" transform="matrix(1, 0, 0, 1, -900.6516723632812, -896.4381713867188)"/>
<g transform="matrix(1, 0, 0, 1, -900.6516723632812, -896.4381713867188)">
		<path class="st2" d="M1349.2,1349.2c22.6-22.6,56.4-27,83.4-13.2l-353.4-256.8l256.8,353.4&#10;&#9;&#9;&#9;C1322.3,1405.6,1326.7,1371.8,1349.2,1349.2z" style="fill: rgb(221, 179, 133);"/>
		<path class="st1" d="M1332,1435.5l-275.3-378.9l378.9,275.3l-5.2,8.5c-25.9-13.2-57-8.2-77.6,12.3c-20.5,20.5-25.5,51.7-12.3,77.6&#10;&#9;&#9;&#9;L1332,1435.5z M1101.9,1101.9l221.6,304.9c-2-22.2,5.7-44.6,22.2-61.1l0,0c16.5-16.5,38.9-24.2,61.1-22.2L1101.9,1101.9z" style="fill: rgb(54, 22, 20);"/>
	</g><path class="st2" d="M1432.6,1336l-353.4-256.8l270,270C1371.8,1326.7,1405.6,1322.3,1432.6,1336z" style="fill: rgb(221, 179, 133);" transform="matrix(1, 0, 0, 1, -900.6516723632812, -896.4381713867188)"/><path class="st1" d="M1349.2,1356.3l-273.5-273.5l6.5-7.6l353.4,256.8l-5.2,8.5c-25.9-13.2-57-8.2-77.6,12.3L1349.2,1356.3z&#10;&#9;&#9;&#9; M1127.7,1120.7l221.6,221.6c16.1-14.1,36.9-20.7,57.5-18.8L1127.7,1120.7z" style="fill: rgb(54, 22, 20);" transform="matrix(1, 0, 0, 1, -900.6516723632812, -896.4381713867188)"/>
<g transform="matrix(1, 0, 0, 1, -900.6516723632812, -896.4381713867188)">
		<path class="st2" d="M1450.8,1450.8c-22.6,22.6-56.4,27-83.4,13.2l353.4,256.8L1464,1367.4&#10;&#9;&#9;&#9;C1477.7,1394.4,1473.3,1428.2,1450.8,1450.8z" style="fill: rgb(221, 179, 133);"/>
		<path class="st1" d="M1743.4,1743.4L1364.5,1468l5.2-8.5c25.9,13.2,57,8.2,77.6-12.3l0,0c20.5-20.5,25.5-51.7,12.3-77.6l8.5-5.2&#10;&#9;&#9;&#9;L1743.4,1743.4z M1393.2,1476.5l304.9,221.6l-221.6-304.9c2,22.2-5.7,44.6-22.2,61.1l0,0l0,0&#10;&#9;&#9;&#9;C1437.8,1470.8,1415.4,1478.5,1393.2,1476.5z" style="fill: rgb(54, 22, 20);"/>
	</g><path class="st2" d="M1367.4,1464l353.4,256.8l-270-270C1428.2,1473.3,1394.4,1477.7,1367.4,1464z" style="fill: rgb(221, 179, 133);" transform="matrix(1, 0, 0, 1, -900.6516723632812, -896.4381713867188)"/><path class="st1" d="M1717.8,1724.8L1364.5,1468l5.2-8.5c25.9,13.2,57,8.2,77.6-12.3l3.5-3.5l3.5,3.5l270,270L1717.8,1724.8z&#10;&#9;&#9;&#9; M1393.2,1476.5l279.1,202.8l-221.6-221.6C1434.6,1471.9,1413.8,1478.4,1393.2,1476.5z" style="fill: rgb(54, 22, 20);" transform="matrix(1, 0, 0, 1, -900.6516723632812, -896.4381713867188)"/>
<g transform="matrix(1, 0, 0, 1, -900.6516723632812, -896.4381713867188)">
		<path class="st2" d="M1349.2,1450.8c-22.6-22.6-27-56.4-13.2-83.4l-256.8,353.4l353.4-256.8&#10;&#9;&#9;&#9;C1405.6,1477.7,1371.8,1473.3,1349.2,1450.8z" style="fill: rgb(221, 179, 133);"/>
		<path class="st1" d="M1056.6,1743.4l275.3-378.9l8.5,5.2c-13.2,25.9-8.2,57,12.3,77.6l0,0c12.9,12.9,29.9,19.6,47.2,19.6&#10;&#9;&#9;&#9;c10.3,0,20.7-2.4,30.4-7.3l5.2,8.5L1056.6,1743.4z M1323.5,1393.2l-221.6,304.9l304.9-221.6c-22.2,2-44.6-5.7-61.1-22.2l0,0&#10;&#9;&#9;&#9;C1329.2,1437.8,1321.5,1415.4,1323.5,1393.2z" style="fill: rgb(54, 22, 20);"/>
	</g><path class="st2" d="M1336,1367.4l-256.8,353.4l270-270C1326.7,1428.2,1322.3,1394.4,1336,1367.4z" style="fill: rgb(221, 179, 133);" transform="matrix(1, 0, 0, 1, -900.6516723632812, -896.4381713867188)"/><path class="st1" d="M1082.8,1724.3l-7.6-6.5l256.8-353.4l8.5,5.2c-13.2,25.9-8.2,57,12.3,77.6l3.5,3.5L1082.8,1724.3z&#10;&#9;&#9;&#9; M1323.5,1393.2l-202.8,279.1l221.6-221.6C1328.1,1434.6,1321.6,1413.8,1323.5,1393.2z" style="fill: rgb(54, 22, 20);" transform="matrix(1, 0, 0, 1, -900.6516723632812, -896.4381713867188)"/>
<g transform="matrix(1, 0, 0, 1, -900.6516723632812, -896.4381713867188)">
		<path class="st2" d="M1450.8,1349.2c22.6,22.6,27,56.4,13.2,83.4l256.8-353.4L1367.4,1336&#10;&#9;&#9;&#9;C1394.4,1322.3,1428.2,1326.7,1450.8,1349.2z" style="fill: rgb(221, 179, 133);"/>
		<path class="st1" d="M1468,1435.5l-8.5-5.2c13.2-25.9,8.2-57-12.3-77.6l0,0c-20.5-20.5-51.7-25.5-77.6-12.3l-5.2-8.5l378.9-275.3&#10;&#9;&#9;&#9;L1468,1435.5z M1454.3,1345.7c16.5,16.5,24.2,38.9,22.2,61.1l221.6-304.9l-304.9,221.6C1415.4,1321.5,1437.8,1329.2,1454.3,1345.7&#10;&#9;&#9;&#9;L1454.3,1345.7z" style="fill: rgb(54, 22, 20);"/>
	</g><path class="st2" d="M1464,1432.6l256.8-353.4l-270,270C1473.3,1371.8,1477.7,1405.6,1464,1432.6z" style="fill: rgb(221, 179, 133);" transform="matrix(1, 0, 0, 1, -900.6516723632812, -896.4381713867188)"/><path class="st1" d="M1468,1435.5l-8.5-5.2c13.2-25.9,8.2-57-12.3-77.6l-3.5-3.5l273.5-273.5l7.6,6.5L1468,1435.5z M1457.7,1349.3&#10;&#9;&#9;&#9;c14.1,16.1,20.7,36.9,18.8,57.5l202.8-279.1L1457.7,1349.3z" style="fill: rgb(54, 22, 20);" transform="matrix(1, 0, 0, 1, -900.6516723632812, -896.4381713867188)"/>
<g transform="matrix(1, 0, 0, 1, -900.6516723632812, -896.4381713867188)">
		<path class="st3" d="M1400,1440.8c-22.5,0-40.8-18.3-40.8-40.8s18.3-40.8,40.8-40.8s40.8,18.3,40.8,40.8&#10;&#9;&#9;&#9;S1422.5,1440.8,1400,1440.8z" style="fill: rgb(190, 30, 45);"/>
	</g><path class="st1" d="M1400,1369.2c17,0,30.8,13.8,30.8,30.8s-13.8,30.8-30.8,30.8s-30.8-13.8-30.8-30.8S1383,1369.2,1400,1369.2&#10;&#9;&#9;&#9; M1400,1349.2c-28,0-50.8,22.7-50.8,50.8s22.7,50.8,50.8,50.8s50.8-22.7,50.8-50.8S1428,1349.2,1400,1349.2L1400,1349.2z" style="fill: rgb(54, 22, 20);" transform="matrix(1, 0, 0, 1, -900.6516723632812, -896.4381713867188)"/>
<path class="st1" d="M1400,1678.6c-74.4,0-144.4-29-197-81.6c-52.6-52.6-81.6-122.6-81.6-197c0-74.4,29-144.4,81.6-197&#10;&#9;&#9;c52.6-52.6,122.6-81.6,197-81.6c74.4,0,144.4,29,197,81.6c52.6,52.6,81.6,122.6,81.6,197c0,74.4-29,144.4-81.6,197&#10;&#9;&#9;C1544.4,1649.6,1474.4,1678.6,1400,1678.6z M1400,1131.4c-71.7,0-139.2,27.9-189.9,78.7s-78.7,118.2-78.7,189.9&#10;&#9;&#9;c0,71.7,27.9,139.2,78.7,189.9s118.2,78.7,189.9,78.7c71.7,0,139.2-27.9,189.9-78.7s78.7-118.2,78.7-189.9&#10;&#9;&#9;c0-71.7-27.9-139.2-78.7-189.9S1471.7,1131.4,1400,1131.4z" style="fill: rgb(54, 22, 20);" transform="matrix(1, 0, 0, 1, -900.6516723632812, -896.4381713867188)"/>













































</svg>